<?xml version="1.0" encoding="UTF-8" standalone="no"?>
<!-- Created with Inkscape (http://www.inkscape.org/) -->

<svg
   width="291.02441mm"
   height="228.62059mm"
   viewBox="0 0 291.02441 228.62059"
   version="1.1"
   id="svg4915"
   inkscape:version="1.2 (dc2aedaf03, 2022-05-15)"
   sodipodi:docname="main page logo art ETHSPS SVG.svg"
   xml:space="preserve"
   xmlns:inkscape="http://www.inkscape.org/namespaces/inkscape"
   xmlns:sodipodi="http://sodipodi.sourceforge.net/DTD/sodipodi-0.dtd"
   xmlns="http://www.w3.org/2000/svg"
   xmlns:svg="http://www.w3.org/2000/svg"><sodipodi:namedview
     id="namedview4917"
     pagecolor="#ffffff"
     bordercolor="#000000"
     borderopacity="0.25"
     inkscape:showpageshadow="2"
     inkscape:pageopacity="0.0"
     inkscape:pagecheckerboard="0"
     inkscape:deskcolor="#d1d1d1"
     inkscape:document-units="mm"
     showgrid="false"
     inkscape:zoom="0.088388348"
     inkscape:cx="-1849.7913"
     inkscape:cy="1764.9385"
     inkscape:window-width="1920"
     inkscape:window-height="1017"
     inkscape:window-x="-8"
     inkscape:window-y="-8"
     inkscape:window-maximized="1"
     inkscape:current-layer="layer1" /><defs
     id="defs4912" /><g
     inkscape:label="Layer 1"
     inkscape:groupmode="layer"
     id="layer1"
     transform="translate(-547.58365,399.27064)"><path
       id="path30596"
       style="fill:#421e66;fill-opacity:1;stroke:none;stroke-width:6.1524;stroke-linecap:round;stroke-dasharray:none;stroke-opacity:1;stop-color:#000000"
       d="m 553.86185,-241.27089 v 6.27817 h -6.2782 v 4.73873 h 6.2782 v 6.27869 h 4.7392 v -6.27869 h 6.27819 v -4.73873 h -6.27819 v -6.27817 z" /><g
       id="g30614"
       transform="matrix(0.92194483,0,0,0.92194483,-102.19758,-319.14528)"><path
         style="fill:#04c1cb;fill-opacity:1;stroke-width:1.88818;stop-color:#000000"
         d="M 864.24764,82.58504 C 847.86535,72.6474 834.46166,64.46032 834.46166,64.39149 c 0,-0.0688 0.59044,-1.11935 1.31224,-2.33452 l 1.31296,-2.20936 14.55029,-8.74735 14.55029,-8.74735 14.00911,11.89335 c 7.70495,6.54136 14.20117,12.03642 14.43534,12.21125 0.36698,0.27399 0.47764,0.68272 0.8032,2.96132 1.00097,7.00308 1.03022,14.76325 0.0893,23.3191 -0.42265,3.83714 -1.07733,7.7943 -1.30151,7.86012 -0.10416,0.0305 -13.59289,-8.07537 -29.97518,-18.01301 z"
         id="path30598" /><path
         style="fill:#de3dab;fill-opacity:1;stroke-width:0.142547"
         d="M 875.33388,106.12425 C 848.71668,90.05462 826.95873,76.83107 826.98302,76.7386 c 0.0351,-0.13303 4.23593,-7.33018 4.38057,-7.5042 0.027,-0.0243 2.24101,1.28413 4.93374,2.90911 2.69299,1.62494 6.5641,3.96024 8.60274,5.18954 2.03836,1.22928 20.63055,12.44887 41.31589,24.93236 l 37.60964,22.69731 0.80682,-0.48272 c 0.44388,-0.26552 21.01319,-12.69302 45.70941,-27.61663 24.69649,-14.92362 45.10257,-27.25236 45.34677,-27.39721 l 0.4441,-0.26336 2.2419,3.7978 c 1.8432,3.12312 2.2075,3.82904 2.0502,3.97354 -0.2267,0.20805 -96.21846,58.19905 -96.50206,58.29911 -0.10524,0.0378 -21.97165,-13.0794 -48.58886,-29.14906 z"
         id="path30600"
         sodipodi:nodetypes="sssssscssscssss" /><path
         style="fill:#04c1cb;fill-opacity:1;stroke-width:1.33515;stop-color:#000000"
         d="m 911.64959,111.34199 c -6.68113,-4.04691 -12.22924,-7.43577 -12.32919,-7.53078 -0.15354,-0.14544 -0.1163,-0.52896 0.23125,-2.4228 1.4022,-7.63092 1.97906,-14.63805 1.84484,-22.41077 -0.0977,-5.62069 -0.40195,-8.90847 -1.24156,-13.41826 -1.46644,-7.87378 -4.40507,-14.81086 -8.456,-19.96047 -0.46194,-0.58746 -2.23468,-2.45 -3.93959,-4.13895 -2.43885,-2.4159 -3.27774,-3.34018 -3.936,-4.33362 -2.56594,-3.87602 -4.13877,-8.68235 -4.87414,-14.89253 -0.31627,-2.67659 -0.49905,-7.09985 -0.39838,-9.64227 l 0.0914,-2.29895 1.20658,1.76488 c 4.43005,6.47754 10.26585,13.25912 16.1681,18.78661 l 2.3503,2.20105 v 4.04052 4.04052 h 2.60378 2.60306 v -3.47138 -3.4714 h 3.20491 3.2042 v -2.60354 -2.60354 h -4.21942 -4.21874 l -4.03666,-4.03882 c -5.06119,-5.06375 -7.56287,-7.91541 -10.98268,-12.51701 -1.62637,-2.18847 -3.42767,-4.80275 -3.35699,-4.87297 0.0285,-0.0283 0.77035,0.15624 1.64994,0.40978 5.96218,1.71936 12.70829,2.27841 19.12955,1.58531 0.97668,-0.10551 3.22992,-0.42943 5.00692,-0.71996 16.23951,-2.65538 27.93542,-2.82179 37.47736,-0.53323 10.4508,2.50654 17.75876,8.07175 22.86922,17.4158 2.69802,4.93231 4.59212,10.46692 6.63545,19.38263 0.37268,1.62815 0.94242,3.91636 1.26582,5.08493 3.43697,12.4259 8.73305,21.52596 15.04291,25.84676 l 1.01884,0.6978 -34.6337,20.95709 c -19.04889,11.52643 -34.67938,20.97252 -34.73438,20.99136 -0.0572,0.0189 -5.56664,-3.27687 -12.24708,-7.32379 z m 31.17819,-67.7435 v -3.40235 l 3.37127,-0.0356 3.37126,-0.0356 0.0356,-2.57016 0.0356,-2.57017 h -3.40484 -3.40553 l -0.0356,-3.43802 -0.0356,-3.43799 -2.57021,-0.0362 -2.56949,-0.0362 v 3.47426 3.47426 h -3.40483 -3.40483 v 2.60354 2.60355 h 3.40483 3.40483 v 3.40464 3.40462 h 2.60305 2.60376 z"
         id="path30602" /><path
         style="fill:#04c1cb;fill-opacity:1;stroke-width:1.33515;stop-color:#000000"
         d="m 880.2758,47.43984 c -6.68256,-5.68087 -12.38488,-10.45317 -12.6726,-10.60514 -0.41266,-0.21803 -0.69467,-0.26417 -1.33509,-0.21911 -0.80176,0.0564 -0.95954,0.14571 -12.07502,6.83141 -6.19494,3.72583 -11.28826,6.74879 -11.31967,6.71767 -0.0357,-0.0391 27.95326,-47.59512 28.33166,-48.13216 0.0143,-0.0216 0.63755,0.30808 1.3822,0.73424 1.23228,0.70565 1.34722,0.80463 1.28583,1.10871 -0.26988,1.33252 -0.51905,6.2981 -0.52262,10.41425 0,4.98639 0.16992,7.44662 0.79034,11.23042 1.17302,7.14439 3.69969,13.04294 7.293,17.02434 0.53832,0.59648 1.6892,1.73088 2.5588,2.52089 3.44552,3.13232 5.9222,6.62655 7.89556,11.14004 0.33555,0.76664 0.5933,1.43204 0.574,1.47861 -0.0216,0.0467 -5.50382,-4.56328 -12.18639,-10.24415 z"
         id="path30604" /><path
         style="fill:#04c1cb;fill-opacity:1;stroke-width:0.472046;stop-color:#000000"
         d="m 897.52198,4.43608 -0.12278,-0.25392 2.58449,-2.29981 c 2.728,-2.42737002 2.84438,-2.54645002 3.06713,-3.1412 0.0572,-0.14895 0.1163,-0.40881 0.13411,-0.57756 0.0286,-0.28695 -0.37054,-9.70925 -0.43765,-10.27885 -0.0429,-0.34945 -0.22856,-0.81929 -0.45692,-1.14539 -0.14706,-0.2094 -0.89101,-0.87814 -3.00002,-2.69699 -1.54213,-1.330198 -2.79796,-2.432275 -2.79084,-2.449086 0.0499,-0.121968 4.69423,-7.076236 4.72637,-7.077558 0.0216,-7.02e-4 1.75274,0.628212 3.84675,1.398009 2.094,0.769825 3.94456,1.438972 4.11305,1.486949 0.37054,0.106047 0.90315,0.112793 1.27512,0.01619 0.4655,-0.120888 7.77277,-3.123524 8.05265,-3.309254 0.33624,-0.222887 0.6818,-0.615773 0.86243,-0.97868 0.10928,-0.21884 0.43336,-1.456214 1.30867,-4.987896 0.64043,-2.583279 1.1823,-4.716762 1.20515,-4.741102 0.0429,-0.04641 8.55169,0.489542 8.64023,0.544347 0.0286,0.01619 0.27985,1.843568 0.56258,4.060459 0.28271,2.216864 0.53903,4.136904 0.56901,4.266697 0.11792,0.499823 0.342,0.885585 0.73254,1.259798 0.3584,0.343802 5.38601,4.468753 5.66017,4.644149 0.42481,0.271863 0.77892,0.368168 1.34293,0.365497 l 0.49548,-0.0021 4.86129,-1.374939 c 3.82462,-1.081893 4.872,-1.362418 4.9134,-1.316167 0.0286,0.03238 0.98313,1.723544 2.11902,3.758266 l 2.06615,3.699471 -0.13492,0.13006 c -0.0742,0.0715 -1.70705,1.50441 -3.62831,3.18437 -1.92123,1.67994 -3.5826,3.15364 -3.69253,3.27488 -0.41196,0.45535 -0.64114,1.05974 -0.63971,1.68379 0,0.40317 0.96028,7.50403998 1.0752,7.96457998 0.0977,0.38773 0.31272,0.78674 0.58259,1.08008 0.12925,0.14005 1.07379,1.00874002 2.09902,1.93043002 1.02523,0.92166 1.85841,1.6825 1.84983,1.69073 -0.008,0.008 -0.31911,-0.081 -0.69181,-0.19833 C 946.50453,2.73372 941.34054,1.86713 936.14011,1.6072 935.5561,1.578 934.87214,1.54 934.62084,1.5227 l -0.45765,-0.0313 0.307,-0.44844 c 1.07094,-1.56410002 1.75277,-3.34158 2.05474,-5.35771 0.0855,-0.57036 0.0855,-2.59237 0,-3.16271 -0.42694,-2.85163 -1.60565,-5.21151 -3.57758,-7.16253 -1.4843,-1.4683 -3.18564,-2.488777 -5.12902,-3.076649 -1.183,-0.357671 -2.2061,-0.504194 -3.52049,-0.504005 -2.02047,2.7e-4 -3.58759,0.363662 -5.41103,1.254482 -2.61161,1.276172 -4.7499,3.512392 -5.89793,6.168522 -1.79343,4.14929 -1.19371,8.90024 1.57284,12.45427 0.17135,0.22073 0.41623,0.51644 0.54403,0.65724 0.26417,0.29267 0.26201,0.29645 -0.23126,0.3546 -1.30151,0.15354 -4.64066,0.66324 -7.59996,1.16007 -3.39056,0.56933 -5.24683,0.75376 -8.35535,0.83024 l -1.2744,0.0313 z"
         id="path30606" /><path
         style="fill:#04c1cb;fill-opacity:1;stroke-width:0.472046;stop-color:#000000"
         d="M 923.18273,1.20421 C 921.63631,0.96540998 920.29554,0.27434998 919.17033,-0.86421002 918.18151,-1.86448 917.53683,-3.10093 917.24768,-4.55067 c -0.14788,-0.74314 -0.14707,-1.95221 0,-2.70155 0.61971,-3.11219 3.04284,-5.38216 6.1628,-5.7737 0.62613,-0.0785 1.75204,-0.0335 2.35175,0.0942 1.37721,0.29285 2.60592,0.95766 3.57832,1.93563 0.27272,0.27419 0.61901,0.67242 0.77036,0.88494 0.59329,0.83596 1.05664,1.94355 1.24013,2.96402 0.12709,0.70504 0.11792,1.90979 -0.0216,2.607 -0.59972,3.03809 -2.94646,5.29685998 -5.97076,5.74585 -0.59686,0.0888 -1.59996,0.088 -2.17968,-10e-4 z"
         id="path30608" /><path
         style="fill:#04c1cb;fill-opacity:1;stroke-width:0.333788;stop-color:#000000"
         d="m 998.11959,73.32432 c -0.81532,-0.30106 -1.48717,-0.63115 -2.24822,-1.10437 -3.12855,-1.94689 -6.06073,-5.41583 -8.59381,-10.16746 -0.38768,-0.72681 -1.02882,-2.03073 -1.36936,-2.78498 l -0.24852,-0.55077 0.15921,-0.16703 c 0.0885,-0.0917 3.43052,-3.6366 7.42791,-7.87736 3.9974,-4.24077 7.2773,-7.71352 7.2887,-7.71721 0.022,-0.008 12.7597,21.58044 12.7662,21.63613 0,0.0421 -14.62387,8.89585 -14.69527,8.89428 -0.0286,-6.5e-4 -0.24852,-0.0731 -0.48693,-0.16136 z"
         id="path30610" /><path
         style="fill:#04c1cb;fill-opacity:1;stroke-width:1.33515;stop-color:#000000"
         d="m 983.04313,51.50869 c -0.72611,-2.32904 -1.43576,-5.04278 -2.36533,-9.04739 -2.65802,-11.45219 -6.12141,-19.47267 -11.1269,-25.76834 -2.15399,-2.70916 -5.20611,-5.5612 -8.05621,-7.52776 l -1.29296,-0.89239 0.20562,-0.49202 c 0.27631,-0.66111 0.18565,-1.9144 -0.17432,-2.40502 -0.14706,-0.20103 -1.92981,-1.86743 -3.961,-3.70325 -2.03116,-1.83582002 -3.87386,-3.5187 -4.09521,-3.7397 -0.38339,-0.38398 -0.41623,-0.51089 -0.74322,-2.85668 l -0.34197,-2.45486 0.44122,-0.36766 c 1.56498,-1.30597 7.54287,-6.66435 7.74991,-6.94728 0.37341,-0.50929 0.53334,-1.37761 0.36769,-1.99263 -0.12278,-0.456806 -5.7894,-10.768792 -6.61972,-12.046561 -0.4298,-0.66224 -1.26871,-1.088559 -2.12545,-1.080383 -0.4298,0.0054 -2.35674,0.488652 -5.40744,1.359774 -2.60665,0.744405 -4.92554,1.388377 -5.15258,1.431092 -0.37267,0.07016 -0.57187,-0.05559 -2.06689,-1.301704 l -1.65492,-1.379391 -0.54904,-4.272472 c -0.73823,-5.748249 -0.6811,-5.442009 -1.14018,-6.07551 -0.68539,-0.946245 -0.96025,-1.008605 -5.85867,-1.327339 -2.38672,-0.155158 -5.15042,-0.340375 -6.14137,-0.411289 -3.00717,-0.215062 -3.69257,-0.182411 -4.35796,0.207237 -0.34057,0.199681 -0.70682,0.567364 -0.89743,0.901209 -0.20913,0.366603 -0.75536,2.344335 -1.5607,5.652321 l -1.2387,5.088385 -2.54809,1.028896 -2.54879,1.028897 -4.60642,-1.691703 c -4.00811,-1.472242 -4.68635,-1.684012 -5.22325,-1.632392 -1.21657,0.116841 -1.31579,0.233951 -5.31678,6.232962 -2.04047,3.058978 -3.80821,5.751703 -3.92815,5.983845 -0.29699,0.574002 -0.27629,1.567146 0.0499,2.229006 0.19644,0.40249 1.12304,1.27942 3.58546,3.39183 l 3.32058,2.84896 0.0885,2.3581 c 0.0499,1.29695 0.12278,2.92888 0.16488,3.6265 l 0.0772,1.26838 -2.0426,1.80247 c -4.10593,3.62435 -4.25658,3.80179 -4.25658,5.00249 0,0.33282 -0.0572,0.60512 -0.12278,0.60512 -0.38765,0 -3.80462,-0.74424 -5.28464,-1.15095 -2.90078,-0.79707 -6.74254,-2.27058002 -6.74254,-2.58611002 0,-0.0788 0.15351,-1.17785 0.34198,-2.44222998 0.63327,-4.2524 1.62709,-9.31938 2.73371,-13.94184 l 0.51833,-2.163405 20.31615,-34.386282 c 11.17401,-18.912489 20.35399,-34.383781 20.39968,-34.380689 0.13195,0.0089 73.78383,124.957496 73.78383,125.172886 0,0.15624 -12.56623,13.63484 -13.71785,14.71344 l -0.32197,0.30214 z"
         id="path30612" /></g><path
       style="fill:none;fill-opacity:1;stroke:#ff42bc;stroke-width:2.646;stroke-linecap:round;stroke-dasharray:none;stroke-opacity:1;stop-color:#000000"
       d="m 589.76052,-295.29726 26.8999,-3.61811 3.77542,-25.3268 24.85488,-3.61812 4.09003,-25.01218 24.69759,-4.09004 3.77541,-24.69756 25.79873,-3.61812"
       id="path30620" /><path
       style="fill:none;fill-opacity:1;stroke:#ff42bc;stroke-width:2.646;stroke-linecap:round;stroke-dasharray:none;stroke-opacity:1;stop-color:#000000"
       d="m 585.74439,-392.28628 -17.30153,20.91298 14.41513,21.16377 -15.79952,19.52513 13.97054,21.14619 -15.36373,19.765 13.98811,20.7016 -16.49277,20.16567"
       id="path30622" /><circle
       style="fill:none;fill-opacity:1;stroke:#00c9bf;stroke-width:2.61659;stroke-linecap:round;stroke-dasharray:none;stroke-opacity:1;stop-color:#000000"
       id="circle30624"
       cx="666.70435"
       cy="-212.43265"
       r="10.465741" /><circle
       style="fill:none;fill-opacity:1;stroke:#00c9bf;stroke-width:2.61659;stroke-linecap:round;stroke-dasharray:none;stroke-opacity:1;stop-color:#000000"
       id="circle30626"
       cx="622.55139"
       cy="-362.10358"
       r="10.465741" /><circle
       style="fill:none;fill-opacity:1;stroke:#00c9bf;stroke-width:2.61659;stroke-linecap:round;stroke-dasharray:none;stroke-opacity:1;stop-color:#000000"
       id="circle30628"
       cx="561.93469"
       cy="-238.62506"
       r="10.465741" /><circle
       style="fill:none;fill-opacity:1;stroke:#00c9bf;stroke-width:2.61659;stroke-linecap:round;stroke-dasharray:none;stroke-opacity:1;stop-color:#000000"
       id="circle30630"
       cx="616.56458"
       cy="-298.49344"
       r="10.465741" /><path
       style="fill:none;fill-opacity:1;stroke:#ff42bc;stroke-width:2.646;stroke-linecap:round;stroke-dasharray:none;stroke-opacity:1;stop-color:#000000"
       d="m 565.84753,-269.12889 8.08601,25.90968 25.6011,-0.53328 7.74244,23.89373 25.3438,-0.17028 8.18125,23.65939 24.9808,-0.42758 7.901,24.82417"
       id="path30632" /><path
       id="path30634"
       style="fill:#421e66;fill-opacity:1;stroke:none;stroke-width:6.1524;stroke-linecap:round;stroke-dasharray:none;stroke-opacity:1;stop-color:#000000"
       d="m 664.76043,-333.22926 v 6.27817 h -6.2782 v 4.73873 h 6.2782 v 6.27869 h 4.7392 v -6.27869 h 6.2782 v -4.73873 h -6.2782 v -6.27817 z" /><path
       id="path30636"
       style="fill:#421e66;fill-opacity:1;stroke:none;stroke-width:6.1524;stroke-linecap:round;stroke-dasharray:none;stroke-opacity:1;stop-color:#000000"
       d="m 570.91123,-371.80831 v 6.27817 h -6.2782 v 4.73873 h 6.2782 v 6.27869 h 4.7392 v -6.27869 h 6.27819 v -4.73873 h -6.27819 v -6.27817 z" /><path
       id="path30638"
       style="fill:#421e66;fill-opacity:1;stroke:none;stroke-width:6.1524;stroke-linecap:round;stroke-dasharray:none;stroke-opacity:1;stop-color:#000000"
       d="m 617.39614,-203.07853 v 6.27817 h -6.2782 v 4.73873 h 6.2782 v 6.27869 h 4.7392 v -6.27869 h 6.27819 v -4.73873 h -6.27819 v -6.27817 z" /></g></svg>
