<?xml version="1.0" encoding="UTF-8" standalone="no"?>
<!-- Created with Inkscape (http://www.inkscape.org/) -->

<svg
   width="193.47464mm"
   height="222.1824mm"
   viewBox="0 0 193.47464 222.1824"
   version="1.1"
   id="svg4915"
   inkscape:version="1.3.2 (091e20ef0f, 2023-11-25)"
   sodipodi:docname="Sticker SVG ETHSPS Logo Placas azul y cyan.svg"
   inkscape:export-filename="Sticker PNG ETHSPS Logo Placas azul y cyan.png"
   inkscape:export-xdpi="300"
   inkscape:export-ydpi="300"
   xmlns:inkscape="http://www.inkscape.org/namespaces/inkscape"
   xmlns:sodipodi="http://sodipodi.sourceforge.net/DTD/sodipodi-0.dtd"
   xmlns="http://www.w3.org/2000/svg"
   xmlns:svg="http://www.w3.org/2000/svg">
  <sodipodi:namedview
     id="namedview4917"
     pagecolor="#ffffff"
     bordercolor="#000000"
     borderopacity="0.25"
     inkscape:showpageshadow="2"
     inkscape:pageopacity="0.0"
     inkscape:pagecheckerboard="0"
     inkscape:deskcolor="#d1d1d1"
     inkscape:document-units="mm"
     showgrid="false"
     inkscape:zoom="0.5946522"
     inkscape:cx="282.51809"
     inkscape:cy="454.88775"
     inkscape:window-width="1214"
     inkscape:window-height="1029"
     inkscape:window-x="702"
     inkscape:window-y="0"
     inkscape:window-maximized="0"
     inkscape:current-layer="layer1" />
  <defs
     id="defs4912" />
  <g
     inkscape:label="Layer 1"
     inkscape:groupmode="layer"
     id="layer1"
     transform="translate(-16.525363,-29.857934)">
    <path
       style="fill:#04c1cb;fill-opacity:1;stroke-width:1.88818;stop-color:#000000"
       d="M 53.790002,199.35204 C 37.407717,189.4144 24.00403,181.22732 24.00403,181.15849 c 0,-0.0688 0.590435,-1.11935 1.312239,-2.33452 l 1.312954,-2.20936 14.55029,-8.74735 14.55029,-8.74735 14.009117,11.89335 c 7.704945,6.54136 14.20117,12.03642 14.435336,12.21125 0.366981,0.27399 0.477642,0.68272 0.803203,2.96132 1.000969,7.00308 1.03022,14.76325 0.08932,23.3191 -0.422649,3.83714 -1.077333,7.7943 -1.301515,7.86012 -0.104158,0.0305 -13.592893,-8.07537 -29.975178,-18.01301 z"
       id="path4190" />
    <path
       style="fill:#de3dab;fill-opacity:1;stroke-width:0.142547"
       d="M 64.876248,222.89125 C 38.259041,206.82162 16.501098,193.59807 16.525383,193.5056 c 0.03508,-0.13303 4.235936,-7.33018 4.380569,-7.5042 0.02698,-0.0243 2.241015,1.28413 4.93374,2.90911 2.692995,1.62494 6.564108,3.96024 8.602743,5.18954 2.038365,1.22928 20.630555,12.44887 41.315888,24.93236 l 37.609647,22.69731 0.80682,-0.48272 c 0.44388,-0.26552 21.01319,-12.69302 45.70941,-27.61663 24.69649,-14.92362 45.10254,-27.25236 45.34674,-27.39721 l 0.44416,-0.26336 2.24182,3.7978 c 1.84327,3.12312 2.20756,3.82904 2.05024,3.97354 -0.22667,0.20805 -96.21845,58.19905 -96.50205,58.29911 -0.10524,0.0378 -21.971655,-13.0794 -48.588862,-29.14906 z"
       id="path3290"
       sodipodi:nodetypes="sssssscssscssss" />
    <path
       style="fill:#04c1cb;fill-opacity:1;stroke-width:1.33515;stop-color:#000000"
       d="m 101.19196,228.10899 c -6.681136,-4.04691 -12.229246,-7.43577 -12.329194,-7.53078 -0.153539,-0.14544 -0.116301,-0.52896 0.231252,-2.4228 1.402193,-7.63092 1.979055,-14.63805 1.844837,-22.41077 -0.09768,-5.62069 -0.401953,-8.90847 -1.241557,-13.41826 -1.466441,-7.87378 -4.405071,-14.81086 -8.456005,-19.96047 -0.461938,-0.58746 -2.234673,-2.45 -3.939585,-4.13895 -2.438852,-2.4159 -3.277744,-3.34018 -3.936004,-4.33362 -2.565935,-3.87602 -4.138766,-8.68235 -4.874134,-14.89253 -0.316279,-2.67659 -0.499052,-7.09985 -0.398383,-9.64227 l 0.0914,-2.29895 1.206575,1.76488 c 4.430058,6.47754 10.265856,13.25912 16.168103,18.78661 l 2.350299,2.20105 v 4.04052 4.04052 h 2.603786 2.603058 v -3.47138 -3.4714 h 3.204907 3.204205 v -2.60354 -2.60354 h -4.219421 -4.218747 l -4.036659,-4.03882 c -5.061185,-5.06375 -7.562864,-7.91541 -10.982674,-12.51701 -1.626377,-2.18847 -3.427672,-4.80275 -3.356991,-4.87297 0.02855,-0.0283 0.770351,0.15624 1.649937,0.40978 5.962178,1.71936 12.708293,2.27841 19.129548,1.58531 0.976683,-0.10551 3.229921,-0.42943 5.00692,-0.71996 16.239517,-2.65538 27.935427,-2.82179 37.477367,-0.53323 10.4508,2.50654 17.75876,8.07175 22.86922,17.4158 2.69802,4.93231 4.59212,10.46692 6.63545,19.38263 0.37268,1.62815 0.94242,3.91636 1.26582,5.08493 3.43697,12.4259 8.73305,21.52596 15.04291,25.84676 l 1.01884,0.6978 -34.6337,20.95709 c -19.04889,11.52643 -34.67938,20.97252 -34.73438,20.99136 -0.0572,0.0189 -5.56664,-3.27687 -12.24708,-7.32379 z m 31.17819,-67.7435 v -3.40235 l 3.37127,-0.0356 3.37126,-0.0356 0.0356,-2.57016 0.0356,-2.57017 h -3.40484 -3.40553 l -0.0356,-3.43802 -0.0356,-3.43799 -2.57021,-0.0362 -2.56949,-0.0362 v 3.47426 3.47426 h -3.40483 -3.40483 v 2.60354 2.60355 h 3.40483 3.40483 v 3.40464 3.40462 h 2.60305 2.60376 z"
       id="path4192" />
    <path
       style="fill:#04c1cb;fill-opacity:1;stroke-width:1.33515;stop-color:#000000"
       d="m 69.818169,164.20684 c -6.682567,-5.68087 -12.384882,-10.45317 -12.672603,-10.60514 -0.412663,-0.21803 -0.694674,-0.26417 -1.335086,-0.21911 -0.801765,0.0564 -0.959548,0.14571 -12.075029,6.83141 -6.194938,3.72583 -11.288255,6.74879 -11.319667,6.71767 -0.0357,-0.0391 27.953264,-47.59512 28.331657,-48.13216 0.0143,-0.0216 0.637557,0.30808 1.382206,0.73424 1.232277,0.70565 1.347223,0.80463 1.285824,1.10871 -0.269874,1.33252 -0.519041,6.2981 -0.522611,10.41425 0,4.98639 0.169918,7.44662 0.79034,11.23042 1.17302,7.14439 3.699687,13.04294 7.292995,17.02434 0.538318,0.59648 1.689204,1.73088 2.558796,2.52089 3.44552,3.13232 5.922206,6.62655 7.895567,11.14004 0.335545,0.76664 0.593296,1.43204 0.574002,1.47861 -0.02159,0.0467 -5.503823,-4.56328 -12.186391,-10.24415 z"
       id="path4194" />
    <path
       style="fill:#04c1cb;fill-opacity:1;stroke-width:0.472046;stop-color:#000000"
       d="m 87.064342,121.20308 -0.122777,-0.25392 2.584493,-2.29981 c 2.727993,-2.42737 2.844375,-2.54645 3.067127,-3.1412 0.05721,-0.14895 0.116301,-0.40881 0.13411,-0.57756 0.0286,-0.28695 -0.370543,-9.70925 -0.437652,-10.27885 -0.04291,-0.34945 -0.228554,-0.81929 -0.456919,-1.14539 -0.147062,-0.2094 -0.891009,-0.87814 -3.000018,-2.69699 -1.542131,-1.330198 -2.797963,-2.432275 -2.790839,-2.449086 0.04992,-0.121968 4.694231,-7.076236 4.726368,-7.077558 0.02159,-7.02e-4 1.752741,0.628212 3.846747,1.398009 2.094006,0.769825 3.944563,1.438972 4.113051,1.486949 0.370543,0.106047 0.903151,0.112793 1.275127,0.01619 0.4655,-0.120888 7.77277,-3.123524 8.05265,-3.309254 0.33624,-0.222887 0.6818,-0.615773 0.86243,-0.97868 0.10928,-0.21884 0.43336,-1.456214 1.30867,-4.987896 0.64043,-2.583279 1.1823,-4.716762 1.20515,-4.741102 0.0429,-0.04641 8.55169,0.489542 8.64023,0.544347 0.0286,0.01619 0.27985,1.843568 0.56258,4.060459 0.28271,2.216864 0.53903,4.136904 0.56901,4.266697 0.11792,0.499823 0.342,0.885585 0.73254,1.259798 0.3584,0.343802 5.38601,4.468753 5.66017,4.644149 0.42481,0.271863 0.77892,0.368168 1.34293,0.365497 l 0.49548,-0.0021 4.86129,-1.374939 c 3.82462,-1.081893 4.872,-1.362418 4.9134,-1.316167 0.0286,0.03238 0.98313,1.723544 2.11902,3.758266 l 2.06615,3.699471 -0.13492,0.13006 c -0.0742,0.0715 -1.70705,1.50441 -3.62831,3.18437 -1.92123,1.67994 -3.5826,3.15364 -3.69253,3.27488 -0.41196,0.45535 -0.64114,1.05974 -0.63971,1.68379 0,0.40317 0.96028,7.50404 1.0752,7.96458 0.0977,0.38773 0.31272,0.78674 0.58259,1.08008 0.12925,0.14005 1.07379,1.00874 2.09902,1.93043 1.02523,0.92166 1.85841,1.6825 1.84983,1.69073 -0.008,0.008 -0.31911,-0.081 -0.69181,-0.19833 -4.16732,-1.31228 -9.33131,-2.17887 -14.53174,-2.4388 -0.58401,-0.0292 -1.26797,-0.0672 -1.51927,-0.0845 l -0.45765,-0.0313 0.307,-0.44844 c 1.07094,-1.5641 1.75277,-3.34158 2.05474,-5.35771 0.0855,-0.57036 0.0855,-2.59237 0,-3.16271 -0.42694,-2.85163 -1.60565,-5.21151 -3.57758,-7.16253 -1.4843,-1.4683 -3.18564,-2.488777 -5.12902,-3.076649 -1.183,-0.357671 -2.2061,-0.504194 -3.52049,-0.504005 -2.02047,2.7e-4 -3.58759,0.363662 -5.41103,1.254482 -2.61161,1.276172 -4.7499,3.512392 -5.89793,6.168522 -1.79343,4.14929 -1.19371,8.90024 1.57284,12.45427 0.17135,0.22073 0.41623,0.51644 0.54403,0.65724 0.26417,0.29267 0.26201,0.29645 -0.23126,0.3546 -1.30151,0.15354 -4.640664,0.66324 -7.599963,1.16007 -3.390557,0.56933 -5.246834,0.75376 -8.355355,0.83024 l -1.274396,0.0313 z"
       id="path4198" />
    <path
       style="fill:#04c1cb;fill-opacity:1;stroke-width:0.472046;stop-color:#000000"
       d="m 112.7251,117.97121 c -1.54642,-0.2388 -2.88719,-0.92986 -4.0124,-2.06842 -0.98882,-1.00027 -1.6335,-2.23672 -1.92265,-3.68646 -0.14788,-0.74314 -0.14707,-1.95221 0,-2.70155 0.61971,-3.11219 3.04284,-5.38216 6.1628,-5.7737 0.62613,-0.0785 1.75204,-0.0335 2.35175,0.0942 1.37721,0.29285 2.60592,0.95766 3.57832,1.93563 0.27272,0.27419 0.61901,0.67242 0.77036,0.88494 0.59329,0.83596 1.05664,1.94355 1.24013,2.96402 0.12709,0.70504 0.11792,1.90979 -0.0216,2.607 -0.59972,3.03809 -2.94646,5.29686 -5.97076,5.74585 -0.59686,0.0888 -1.59996,0.088 -2.17968,-10e-4 z"
       id="path4200" />
    <path
       style="fill:#04c1cb;fill-opacity:1;stroke-width:0.333788;stop-color:#000000"
       d="m 187.66196,190.09132 c -0.81532,-0.30106 -1.48717,-0.63115 -2.24822,-1.10437 -3.12855,-1.94689 -6.06073,-5.41583 -8.59381,-10.16746 -0.38768,-0.72681 -1.02882,-2.03073 -1.36936,-2.78498 l -0.24852,-0.55077 0.15921,-0.16703 c 0.0885,-0.0917 3.43052,-3.6366 7.42791,-7.87736 3.9974,-4.24077 7.2773,-7.71352 7.28871,-7.71721 0.0216,-0.008 12.75972,21.58044 12.76615,21.63613 0,0.0421 -14.62383,8.89585 -14.69523,8.89428 -0.0286,-6.5e-4 -0.24852,-0.0731 -0.48693,-0.16136 z"
       id="path4202" />
    <path
       style="fill:#04c1cb;fill-opacity:1;stroke-width:1.33515;stop-color:#000000"
       d="m 172.5855,168.27569 c -0.72611,-2.32904 -1.43576,-5.04278 -2.36533,-9.04739 -2.65802,-11.45219 -6.12141,-19.47267 -11.1269,-25.76834 -2.15399,-2.70916 -5.20611,-5.5612 -8.05621,-7.52776 l -1.29296,-0.89239 0.20562,-0.49202 c 0.27631,-0.66111 0.18565,-1.9144 -0.17432,-2.40502 -0.14706,-0.20103 -1.92981,-1.86743 -3.961,-3.70325 -2.03116,-1.83582 -3.87386,-3.5187 -4.09521,-3.7397 -0.38339,-0.38398 -0.41623,-0.51089 -0.74322,-2.85668 l -0.34197,-2.45486 0.44122,-0.36766 c 1.56498,-1.30597 7.54287,-6.66435 7.74991,-6.94728 0.37341,-0.50929 0.53334,-1.37761 0.36769,-1.99263 -0.12278,-0.456806 -5.7894,-10.768792 -6.61972,-12.046561 -0.4298,-0.66224 -1.26871,-1.088559 -2.12545,-1.080383 -0.4298,0.0054 -2.35674,0.488652 -5.40744,1.359774 -2.60665,0.744405 -4.92554,1.388377 -5.15258,1.431092 -0.37267,0.07016 -0.57187,-0.05559 -2.06689,-1.301704 l -1.65492,-1.379391 -0.54904,-4.272472 c -0.73823,-5.748249 -0.6811,-5.442009 -1.14018,-6.07551 -0.68539,-0.946245 -0.96025,-1.008605 -5.85867,-1.327339 -2.38672,-0.155158 -5.15042,-0.340375 -6.14137,-0.411289 -3.00717,-0.215062 -3.69257,-0.182411 -4.35796,0.207237 -0.34057,0.199681 -0.70682,0.567364 -0.89743,0.901209 -0.20913,0.366603 -0.75536,2.344335 -1.5607,5.652321 l -1.2387,5.088385 -2.54809,1.028896 -2.54879,1.028897 -4.606425,-1.691703 c -4.00811,-1.472242 -4.686351,-1.684012 -5.22325,-1.632392 -1.21657,0.116841 -1.31579,0.233951 -5.316776,6.232962 -2.04047,3.058978 -3.808214,5.751703 -3.928157,5.983845 -0.296985,0.574002 -0.276289,1.567146 0.04992,2.229006 0.196443,0.40249 1.123044,1.27942 3.585461,3.39183 l 3.320587,2.84896 0.08851,2.3581 c 0.04992,1.29695 0.122777,2.92888 0.164872,3.6265 l 0.07717,1.26838 -2.042601,1.80247 c -4.105928,3.62435 -4.256579,3.80179 -4.256579,5.00249 0,0.33282 -0.05721,0.60512 -0.122777,0.60512 -0.387651,0 -3.804624,-0.74424 -5.284644,-1.15095 -2.900776,-0.79707 -6.742539,-2.27058 -6.742539,-2.58611 0,-0.0788 0.153512,-1.17785 0.341984,-2.44223 0.633272,-4.2524 1.627089,-9.31938 2.733711,-13.94184 l 0.518328,-2.163405 20.31615,-34.386282 C 104.17185,45.326134 113.35183,29.854842 113.39752,29.857934 c 0.13195,0.0089 73.78383,124.957496 73.78383,125.172886 0,0.15624 -12.56623,13.63484 -13.71785,14.71344 l -0.32197,0.30214 z"
       id="path4204" />
    <path
       style="font-weight:500;font-size:16.3359px;line-height:1.2;font-family:Montserrat;-inkscape-font-specification:'Montserrat Medium';text-align:center;letter-spacing:1.27412px;word-spacing:0px;text-anchor:middle;white-space:pre;fill:#04c1cb;stroke-width:5.73357;stroke-linecap:round;stroke-linejoin:round"
       d="m 102.96516,-100.06551 c -4.57405,0 -7.710543,3.087485 -7.710543,7.400162 0,4.329014 3.103821,7.44917 7.645203,7.44917 1.15985,0 2.51573,-0.261374 3.51222,-0.767787 l -0.35939,-1.045498 c -0.96382,0.506413 -2.15634,0.71878 -3.15283,0.71878 -3.87161,0 -6.452682,-2.613744 -6.452682,-6.354665 0,-3.708249 2.613743,-6.321993 6.518022,-6.321993 3.85527,0 6.50169,2.450385 6.50169,6.109627 0,2.041987 -0.55542,3.218172 -1.51924,3.218172 -0.50641,0 -0.93115,-0.310382 -0.93115,-1.176185 v -5.880924 h -1.42122 v 1.323208 c -0.66977,-0.91481 -1.7316,-1.388551 -2.98947,-1.388551 -2.3197,0 -4.002294,1.731605 -4.002294,4.165654 0,2.434049 1.682594,4.198326 4.002294,4.198326 1.37222,0 2.45039,-0.539085 3.10382,-1.55191 0.19603,0.996489 0.91481,1.55191 1.96031,1.55191 1.84596,0 2.90779,-1.698933 2.90779,-4.476036 0,-4.230998 -3.13649,-7.17146 -7.61253,-7.17146 z m -0.13069,10.373296 c -1.63359,0 -2.7771,-1.159849 -2.7771,-2.924126 0,-1.780613 1.14351,-2.90779 2.7771,-2.90779 1.58459,0 2.79344,1.094505 2.79344,2.90779 0,1.813285 -1.20885,2.924126 -2.79344,2.924126 z m 13.15033,-3.936952 h 5.7339 v -1.388551 h -5.7339 v -3.512219 h 6.43634 v -1.421223 h -8.06993 v 11.43513 h 8.29864 v -1.421224 h -6.66505 z m 14.53889,3.479547 c -0.32672,0.261374 -0.76779,0.408397 -1.2252,0.408397 -0.8658,0 -1.35588,-0.522749 -1.35588,-1.453895 v -4.688403 h 2.48306 v -1.290536 h -2.48306 v -1.894964 h -1.56824 v 1.894964 h -1.47023 v 1.290536 h 1.47023 v 4.753747 c 0,1.747941 0.99649,2.711759 2.74443,2.711759 0.70244,0 1.42122,-0.196031 1.89496,-0.604428 z m 8.28221,-7.106117 c -1.32321,0 -2.40138,0.473742 -3.05481,1.306872 v -4.688406 h -1.56825 v 12.121241 h 1.56825 v -4.459701 c 0,-1.878628 1.07817,-2.875118 2.74443,-2.875118 1.48657,0 2.33603,0.833131 2.33603,2.532064 v 4.802755 h 1.56825 v -4.98245 c 0,-2.5484 -1.48657,-3.757257 -3.5939,-3.757257 z m 15.6007,4.459701 c 0,-2.662752 -1.78062,-4.459701 -4.28001,-4.459701 -2.49939,0 -4.34535,1.845957 -4.34535,4.410693 0,2.581072 1.8623,4.427029 4.65573,4.427029 1.43756,0 2.63008,-0.490077 3.41421,-1.404887 l -0.86581,-1.012826 c -0.6371,0.702444 -1.48656,1.045497 -2.49939,1.045497 -1.71527,0 -2.94046,-1.012825 -3.13649,-2.532064 h 7.02444 c 0.0163,-0.147023 0.0327,-0.343054 0.0327,-0.473741 z m -4.28001,-3.136493 c 1.51924,0 2.61375,1.029162 2.77711,2.483057 h -5.55421 c 0.16336,-1.470231 1.2742,-2.483057 2.7771,-2.483057 z m 9.2297,-1.241528 h -1.50291 v 8.658027 h 1.56825 v -4.312678 c 0,-1.894964 1.0455,-2.924126 2.7281,-2.924126 0.11435,0 0.2287,0 0.35939,0.01634 v -1.519239 c -1.51924,0 -2.59741,0.522749 -3.15283,1.535575 z m 14.09781,4.378021 c 0,-2.662752 -1.78061,-4.459701 -4.28001,-4.459701 -2.49939,0 -4.34535,1.845957 -4.34535,4.410693 0,2.581072 1.8623,4.427029 4.65573,4.427029 1.43756,0 2.63008,-0.490077 3.41421,-1.404887 l -0.8658,-1.012826 c -0.6371,0.702444 -1.48657,1.045497 -2.4994,1.045497 -1.71527,0 -2.94046,-1.012825 -3.13649,-2.532064 h 7.02444 c 0.0163,-0.147023 0.0327,-0.343054 0.0327,-0.473741 z m -4.28001,-3.136493 c 1.51924,0 2.61375,1.029162 2.77711,2.483057 h -5.55421 c 0.16336,-1.470231 1.2742,-2.483057 2.7771,-2.483057 z m 14.22848,3.234508 c 0,1.862293 -1.04549,2.875119 -2.67908,2.875119 -1.48657,0 -2.33604,-0.849467 -2.33604,-2.548401 v -4.802754 h -1.56824 v 4.982449 c 0,2.548401 1.48656,3.773593 3.72458,3.773593 1.22519,0 2.30336,-0.506413 2.94046,-1.404887 v 1.306872 h 1.48657 v -8.658027 h -1.56825 z m 16.66254,-4.557716 c -1.47023,0 -2.67908,0.620765 -3.33252,1.600919 -0.57176,-1.07817 -1.6826,-1.600919 -3.00581,-1.600919 -1.30687,0 -2.3687,0.490077 -2.98947,1.372216 v -1.290536 h -1.5029 v 8.658027 h 1.56825 v -4.459701 c 0,-1.878628 1.02916,-2.875118 2.59741,-2.875118 1.42122,0 2.23801,0.833131 2.23801,2.532064 v 4.802755 h 1.56825 v -4.459701 c 0,-1.878628 1.02916,-2.875118 2.59741,-2.875118 1.42122,0 2.23802,0.833131 2.23802,2.532064 v 4.802755 H 203.61 v -4.98245 c 0,-2.5484 -1.43756,-3.757257 -3.54489,-3.757257 z m 11.27168,8.870394 c 3.02214,0 4.42703,-1.502903 4.42703,-3.250844 0,-4.198326 -6.92642,-2.450385 -6.92642,-5.243824 0,-0.99649 0.83313,-1.813285 2.7771,-1.813285 1.01283,0 2.14,0.294047 3.13649,0.931147 l 0.53909,-1.306872 c -0.94748,-0.653436 -2.33603,-1.01283 -3.67558,-1.01283 -3.0058,0 -4.37802,1.502907 -4.37802,3.267184 0,4.247334 6.92642,2.483056 6.92642,5.276495 0,0.99649 -0.84947,1.764277 -2.82611,1.764277 -1.47023,0 -2.92413,-0.55542 -3.77359,-1.323207 l -0.60443,1.2742 c 0.91481,0.849466 2.63008,1.437559 4.37802,1.437559 z m 8.08619,-11.565817 v 11.43513 h 1.63359 v -3.463211 h 2.82611 c 2.97314,0 4.77009,-1.502903 4.77009,-3.985959 0,-2.483057 -1.79695,-3.98596 -4.77009,-3.98596 z m 1.63359,6.550696 v -5.129473 h 2.77711 c 2.09099,0 3.1855,0.931147 3.1855,2.564737 0,1.633589 -1.09451,2.564736 -3.1855,2.564736 z m 14.76758,5.015121 c 3.02214,0 4.42703,-1.502903 4.42703,-3.250844 0,-4.198326 -6.92642,-2.450385 -6.92642,-5.243824 0,-0.99649 0.83313,-1.813285 2.7771,-1.813285 1.01283,0 2.14,0.294047 3.13649,0.931147 l 0.53909,-1.306872 c -0.94749,-0.653436 -2.33604,-1.01283 -3.67558,-1.01283 -3.00581,0 -4.37802,1.502907 -4.37802,3.267184 0,4.247334 6.92642,2.483056 6.92642,5.276495 0,0.99649 -0.84947,1.764277 -2.82611,1.764277 -1.47023,0 -2.92413,-0.55542 -3.77359,-1.323207 l -0.60443,1.2742 c 0.91481,0.849466 2.63008,1.437559 4.37802,1.437559 z"
       id="text1"
       transform="rotate(59.429172)"
       aria-label="@EthereumSPS" />
  </g>
</svg>
